
<global>
ampeg_attack=0.001
ampeg_release=1.25
master-volume=-10
</global>

<group>
group_label=HH_RR1
seq_length=4
seq_position=1

<region>
end=22740
hivel=103
key=F#3
lovel=78
offset=488
sample=Closed_Hihat_Group_F_RR_1.opus
</region>

<region>
end=21878
hivel=127
key=F#3
lovel=104
sample=Closed_Hihat_Group_FF_RR_1.opus
</region>

<region>
end=22050
hivel=77
key=F#3
lovel=52
offset=11
sample=Closed_Hihat_Group_MF_RR_1.opus
</region>

<region>
end=22740
hivel=25
key=F#3
lovel=0
offset=235
sample=Closed_Hihat_Group_P_RR_1.opus
</region>

<region>
end=21964
hivel=51
key=F#3
lovel=26
sample=Closed_Hihat_Group_MP_RR_1.opus
</region>
</group>

<group>
group_label=HH_RR3
seq_length=4
seq_position=2

<region>
end=22395
hivel=103
key=F#3
lovel=78
sample=Closed_Hihat_Group_F_RR_3.opus
</region>

<region>
end=22137
hivel=51
key=F#3
lovel=26
sample=Closed_Hihat_Group_MP_RR_3.opus
</region>

<region>
end=22050
hivel=25
key=F#3
lovel=0
offset=88
sample=Closed_Hihat_Group_P_RR_3.opus
</region>

<region>
end=22653
hivel=127
key=F#3
lovel=104
sample=Closed_Hihat_Group_FF_RR_3.opus
</region>

<region>
end=21964
hivel=77
key=F#3
lovel=52
sample=Closed_Hihat_Group_MF_RR_3.opus
</region>
</group>

<group>
group_label=HH_RR5
seq_length=4
seq_position=3

<region>
end=22137
hivel=77
key=F#3
lovel=52
sample=Closed_Hihat_Group_MF_RR_5.opus
</region>

<region>
end=22740
hivel=103
key=F#3
lovel=78
sample=Closed_Hihat_Group_F_RR_5.opus
</region>

<region>
end=9346
hivel=25
key=F#3
lovel=0
sample=Closed_Hihat_Group_P_RR_5.opus
</region>

<region>
end=22061
hivel=51
key=F#3
lovel=26
sample=Closed_Hihat_Group_MP_RR_5.opus
</region>

<region>
end=23106
hivel=127
key=F#3
lovel=104
sample=Closed_Hihat_Group_FF_RR_5.opus
</region>
</group>

<group>
group_label=HH_RR7
seq_length=4
seq_position=4

<region>
end=11025
hivel=25
key=F#3
lovel=0
sample=Closed_Hihat_Group_P_RR_7.opus
</region>

<region>
end=22395
hivel=127
key=F#3
lovel=104
offset=62
sample=Closed_Hihat_Group_FF_RR_7.opus
</region>

<region>
end=22309
hivel=51
key=F#3
lovel=26
sample=Closed_Hihat_Group_MP_RR_7.opus
</region>

<region>
end=22740
hivel=103
key=F#3
lovel=78
sample=Closed_Hihat_Group_F_RR_7.opus
</region>

<region>
end=22933
hivel=77
key=F#3
lovel=52
sample=Closed_Hihat_Group_MF_RR_7.opus
</region>
</group>

<group>
group_label=CB_Shoulder_RR1
seq_length=4
seq_position=1

<region>
end=44790
hivel=77
key=G#4
lovel=52
offset=262
sample=CowbellShoulder_group_MF_RR1.opus
</region>

<region>
end=43411
hivel=51
key=G#4
lovel=26
sample=CowbellShoulder_group_MP_RR1.opus
</region>

<region>
end=44738
hivel=127
key=G#4
lovel=104
sample=CowbellShoulder_group_FF_RR1.opus
</region>

<region>
end=28597
hivel=25
key=G#4
lovel=0
offset=146
sample=CowbellShoulder_group_P_RR1.opus
</region>

<region>
end=44617
hivel=103
key=G#4
lovel=78
sample=CowbellShoulder_group_F_RR1.opus
</region>
</group>

<group>
group_label=CB_Shoulder_RR3
seq_length=4
seq_position=2

<region>
end=43330
hivel=77
key=G#4
lovel=52
sample=CowbellShoulder_group_MF_RR3.opus
</region>

<region>
end=43713
hivel=127
key=G#4
lovel=104
sample=CowbellShoulder_group_FF_RR3.opus
</region>

<region>
end=44445
hivel=103
key=G#4
lovel=78
sample=CowbellShoulder_group_F_RR3.opus
</region>

<region>
end=43463
hivel=51
key=G#4
lovel=26
sample=CowbellShoulder_group_MP_RR3.opus
</region>

<region>
end=33937
hivel=25
key=G#4
lovel=0
sample=CowbellShoulder_group_P_RR3.opus
</region>
</group>

<group>
group_label=CB_Shoulder_RR5
seq_length=4
seq_position=3

<region>
end=44445
hivel=103
key=G#4
lovel=78
offset=265
sample=CowbellShoulder_group_F_RR5.opus
</region>

<region>
end=44596
hivel=77
key=G#4
lovel=52
offset=82
sample=CowbellShoulder_group_MF_RR5.opus
</region>

<region>
end=43584
hivel=127
key=G#4
lovel=104
sample=CowbellShoulder_group_FF_RR5.opus
</region>

<region>
end=43584
hivel=51
key=G#4
lovel=26
sample=CowbellShoulder_group_MP_RR5.opus
</region>

<region>
end=39966
hivel=25
key=G#4
lovel=0
offset=471
sample=CowbellShoulder_group_P_RR5.opus
</region>
</group>

<group>
group_label=CB_Shoulder_RR7
seq_length=4
seq_position=4

<region>
end=39966
hivel=25
key=G#4
lovel=0
offset=95
sample=CowbellShoulder_group_P_RR7.opus
</region>

<region>
end=44101
hivel=103
key=G#4
lovel=78
offset=5
sample=CowbellShoulder_group_F_RR7.opus
</region>

<region>
end=44091
hivel=127
key=G#4
lovel=104
sample=CowbellShoulder_group_FF_RR7.opus
</region>

<region>
end=44101
hivel=51
key=G#4
lovel=26
offset=27
sample=CowbellShoulder_group_MP_RR7.opus
</region>

<region>
end=44445
hivel=77
key=G#4
lovel=52
offset=89
sample=CowbellShoulder_group_MF_RR7.opus
</region>
</group>

<group>
group_label=CB_Tip_RR1
seq_length=4
seq_position=1

<region>
end=43411
hivel=25
key=G4
lovel=0
offset=349
sample=Cowbell-tip-group_P_RR1.opus
</region>

<region>
end=44333
hivel=103
key=G4
lovel=78
offset=73
sample=Cowbell-tip-group_F_RR1.opus
</region>

<region>
end=43756
hivel=77
key=G4
lovel=52
sample=Cowbell-tip-group_MF_RR1.opus
</region>

<region>
end=43756
hivel=127
key=G4
lovel=104
sample=Cowbell-tip-group_FF_RR1.opus
</region>

<region>
end=44187
hivel=51
key=G4
lovel=26
offset=373
sample=Cowbell-tip-group_MP_RR1.opus
</region>
</group>

<group>
group_label=CB_Tip_RR3
seq_length=4
seq_position=2

<region>
end=44100
hivel=77
key=G4
lovel=52
sample=Cowbell-tip-group_MF_RR3.opus
</region>

<region>
end=43756
hivel=25
key=G4
lovel=0
sample=Cowbell-tip-group_P_RR3.opus
</region>

<region>
end=44187
hivel=127
key=G4
lovel=104
sample=Cowbell-tip-group_FF_RR3.opus
</region>

<region>
end=44359
hivel=51
key=G4
lovel=26
sample=Cowbell-tip-group_MP_RR3.opus
</region>

<region>
end=43778
hivel=103
key=G4
lovel=78
sample=Cowbell-tip-group_F_RR3.opus
</region>
</group>

<group>
group_label=CB_Tip_RR5
seq_length=4
seq_position=3

<region>
end=44445
hivel=25
key=G4
lovel=0
sample=Cowbell-tip-group_P_RR5.opus
</region>

<region>
end=44790
hivel=103
key=G4
lovel=78
offset=491
sample=Cowbell-tip-group_F_RR5.opus
</region>

<region>
end=44144
hivel=127
key=G4
lovel=104
sample=Cowbell-tip-group_FF_RR5.opus
</region>

<region>
end=44790
hivel=51
key=G4
lovel=26
offset=310
sample=Cowbell-tip-group_MP_RR5.opus
</region>

<region>
end=43411
hivel=77
key=G4
lovel=52
sample=Cowbell-tip-group_MF_RR5.opus
</region>
</group>

<group>
group_label=CB_Tip_RR7
seq_length=4
seq_position=4

<region>
end=43756
hivel=103
key=G4
lovel=78
offset=5
sample=Cowbell-tip-group_F_RR7.opus
</region>

<region>
end=43584
hivel=77
key=G4
lovel=52
sample=Cowbell-tip-group_MF_RR7.opus
</region>

<region>
end=43899
hivel=25
key=G4
lovel=0
offset=5
sample=Cowbell-tip-group_P_RR7.opus
</region>

<region>
end=43928
hivel=51
key=G4
lovel=26
offset=5
sample=Cowbell-tip-group_MP_RR7.opus
</region>

<region>
end=44133
hivel=127
key=G4
lovel=104
sample=Cowbell-tip-group_FF_RR7.opus
</region>
</group>

<group>
group_label=Crash_RR1
seq_length=2
seq_position=1

<region>
end=441862
hivel=103
key=C#4
lovel=78
sample=Crash_group_F_RR1.opus
</region>

<region>
end=508184
hivel=127
key=C#4
lovel=104
sample=Crash_group_FF_RR1.opus
</region>

<region>
end=353490
hivel=77
key=C#4
lovel=52
offset=577
sample=Crash_group_MF_RR1.opus
</region>

<region>
end=447891
hivel=51
key=C#4
lovel=0
offset=884
sample=Crash_group_MP_RR1.opus
</region>
</group>

<group>
group_label=Crash_RR2
seq_length=2
seq_position=2

<region>
end=397590
hivel=77
key=C#4
lovel=52
offset=591
sample=Crash_group_MF_RR2.opus
</region>

<region>
end=441690
hivel=51
key=C#4
lovel=0
offset=588
sample=Crash_group_MP_RR2.opus
</region>

<region>
end=485187
hivel=103
key=C#4
lovel=78
sample=Crash_group_F_RR2.opus
</region>

<region>
end=485100
hivel=127
key=C#4
lovel=104
offset=3205
sample=Crash_group_FF_RR2.opus
</region>
</group>

<group>
group_label=Dut_RR1
seq_length=8
seq_position=1

<region>
end=27983
hivel=127
key=C#1
lovel=0
offset=2557
sample=Duts_group_RR1.opus
</region>
</group>

<group>
group_label=Dut_RR2
seq_length=8
seq_position=2

<region>
end=25884
hivel=127
key=C#1
lovel=0
offset=1699
sample=Duts_group_RR2.opus
</region>
</group>

<group>
group_label=Dut_RR3
seq_length=8
seq_position=3

<region>
end=27283
hivel=127
key=C#1
lovel=0
offset=147
sample=Duts_group_RR3.opus
</region>
</group>

<group>
group_label=Dut_RR4
seq_length=8
seq_position=4

<region>
end=30781
hivel=127
key=C#1
lovel=0
offset=1094
sample=Duts_group_RR4.opus
</region>
</group>

<group>
group_label=Dut_RR5
seq_length=8
seq_position=5

<region>
end=33579
hivel=127
key=C#1
lovel=0
offset=1389
sample=Duts_group_RR5.opus
</region>
</group>

<group>
group_label=Dut_RR6
seq_length=8
seq_position=6

<region>
end=30082
hivel=127
key=C#1
lovel=0
offset=931
sample=Duts_group_RR6.opus
</region>
</group>

<group>
group_label=Dut_RR7
seq_length=8
seq_position=7

<region>
end=27983
hivel=127
key=C#1
lovel=0
offset=1473
sample=Duts_group_RR7.opus
</region>
</group>

<group>
group_label=Dut_RR8
seq_length=8
seq_position=8

<region>
end=30781
hivel=127
key=C#1
lovel=0
offset=1782
sample=Duts_Group_RR8.opus
</region>
</group>

<group>
group_label=Harness_RR1
seq_length=4
seq_position=1

<region>
end=29970
hivel=127
key=F1
lovel=0
offset=1005
sample=HarnessHits_group_RR1.opus
</region>
</group>

<group>
group_label=Harness_RR3
seq_length=4
seq_position=2

<region>
end=31332
hivel=127
key=F1
lovel=0
offset=280
sample=HarnessHits_group_RR3.opus
</region>
</group>

<group>
group_label=Harness_RR5
seq_length=4
seq_position=3

<region>
end=27246
hivel=127
key=F1
lovel=0
sample=HarnessHits_group_RR5.opus
</region>
</group>

<group>
group_label=Harness_RR7
seq_length=4
seq_position=4

<region>
end=35419
hivel=127
key=F1
lovel=0
offset=48
sample=HarnessHits_group_RR7.opus
</region>
</group>

<group>
group_label=HiAgogo_RR1
seq_length=3
seq_position=1

<region>
end=43477
hivel=127
key=G5
lovel=104
offset=24
sample=HiAgogo_group_FF_RR1.opus
</region>

<region>
end=43576
hivel=77
key=G5
lovel=52
sample=HiAgogo_group_MF_RR1.opus
</region>

<region>
end=43584
hivel=51
key=G5
lovel=26
sample=HiAgogo_group_MP_RR1.opus
</region>

<region>
end=43550
hivel=103
key=G5
lovel=78
sample=HiAgogo_group_F_RR1.opus
</region>

<region>
end=44100
hivel=25
key=G5
lovel=0
offset=408
sample=HiAgogo_group_P_RR1.opus
</region>
</group>

<group>
group_label=HiAgogo_RR3
seq_length=3
seq_position=2

<region>
end=43756
hivel=127
key=G5
lovel=104
sample=HiAgogo_group_FF_RR3.opus
</region>

<region>
end=44077
hivel=51
key=G5
lovel=26
sample=HiAgogo_group_MP_RR3.opus
</region>

<region>
end=46273
hivel=25
key=G5
lovel=0
offset=1098
sample=HiAgogo_group_P_RR3.opus
</region>

<region>
end=43900
hivel=77
key=G5
lovel=52
sample=HiAgogo_group_MF_RR3.opus
</region>

<region>
end=43670
hivel=103
key=G5
lovel=78
sample=HiAgogo_group_F_RR3.opus
</region>
</group>

<group>
group_label=HiAgogo_RR5
seq_length=3
seq_position=3

<region>
end=43498
hivel=77
key=G5
lovel=52
sample=HiAgogo_group_MF_RR5.opus
</region>

<region>
end=43670
hivel=25
key=G5
lovel=0
sample=HiAgogo_group_P_RR5.opus
</region>

<region>
end=43498
hivel=51
key=G5
lovel=26
sample=HiAgogo_group_MP_RR5.opus
</region>

<region>
end=44100
hivel=103
key=G5
lovel=78
offset=137
sample=HiAgogo_group_F_RR5.opus
</region>

<region>
end=43928
hivel=127
key=G5
lovel=104
sample=HiAgogo_group_FF_RR5.opus
</region>
</group>

<group>
group_label=HiJamBlock_RR1
seq_length=4
seq_position=1

<region>
end=22050
hivel=103
key=E6
lovel=78
offset=97
sample=HiJamBlock_Group_F_RR1.opus
</region>

<region>
end=23429
hivel=25
key=E6
lovel=0
offset=981
sample=HiJamBlock_Group_P_RR1.opus
</region>

<region>
end=22050
hivel=77
key=E6
lovel=52
offset=479
sample=HiJamBlock_Group_MF_RR1.opus
</region>

<region>
end=22050
hivel=127
key=E6
lovel=104
sample=HiJamBlock_Group_FF_RR1.opus
</region>

<region>
end=22395
hivel=51
key=E6
lovel=26
sample=HiJamBlock_Group_MP_RR1.opus
</region>
</group>

<group>
group_label=HiJamBlock_RR3
seq_length=4
seq_position=2

<region>
end=22309
hivel=103
key=E6
lovel=78
sample=HiJamBlock_Group_F_RR3.opus
</region>

<region>
end=22050
hivel=51
key=E6
lovel=26
sample=HiJamBlock_Group_MP_RR3.opus
</region>

<region>
end=23429
hivel=25
key=E6
lovel=0
offset=476
sample=HiJamBlock_Group_P_RR3.opus
</region>

<region>
end=22050
hivel=127
key=E6
lovel=104
offset=545
sample=HiJamBlock_Group_FF_RR3.opus
</region>

<region>
end=22050
hivel=77
key=E6
lovel=52
offset=31
sample=HiJamBlock_Group_MF_RR3.opus
</region>
</group>

<group>
group_label=HiJamBlock_RR5
seq_length=4
seq_position=3

<region>
end=21534
hivel=103
key=E6
lovel=78
offset=110
sample=HiJamBlock_Group_F_RR6.opus
</region>

<region>
end=22266
hivel=25
key=E6
lovel=0
sample=HiJamBlock_Group_P_RR6.opus
</region>

<region>
end=22567
hivel=51
key=E6
lovel=26
offset=73
sample=HiJamBlock_Group_MP_RR6.opus
</region>

<region>
end=22137
hivel=77
key=E6
lovel=52
sample=HiJamBlock_Group_MF_RR6.opus
</region>

<region>
end=22223
hivel=127
key=E6
lovel=104
sample=HiJamBlock_Group_FF_RR6.opus
</region>
</group>

<group>
group_label=HiJamBlock_RR7
seq_length=4
seq_position=4

<region>
end=44100
hivel=25
key=E6
lovel=0
offset=104
sample=HiJamBlock_Group_P_RR8.opus
</region>

<region>
end=21706
hivel=77
key=E6
lovel=52
offset=166
sample=HiJamBlock_Group_MF_RR8.opus
</region>

<region>
end=22050
hivel=127
key=E6
lovel=104
offset=23
sample=HiJamBlock_Group_FF_RR8.opus
</region>

<region>
end=21878
hivel=51
key=E6
lovel=26
sample=HiJamBlock_Group_MP_RR8.opus
</region>

<region>
end=21706
hivel=103
key=E6
lovel=78
offset=258
sample=HiJamBlock_Group_F_RR8.opus
</region>
</group>

<group>
group_label=LoAgogo_RR1
seq_length=4
seq_position=1

<region>
end=43411
hivel=25
key=G#5
lovel=0
sample=LoAgogo_group_P_RR1.opus
</region>

<region>
end=44779
hivel=103
key=G#5
lovel=78
offset=358
sample=LoAgogo_group_F_RR1.opus
</region>

<region>
end=43713
hivel=127
key=G#5
lovel=104
sample=LoAgogo_group_FF_RR1.opus
</region>

<region>
end=43928
hivel=51
key=G#5
lovel=26
sample=LoAgogo_group_MP_RR1.opus
</region>

<region>
end=44663
hivel=77
key=G#5
lovel=52
offset=1
sample=LoAgogo_group_MF_RR1.opus
</region>
</group>

<group>
group_label=LoAgogo_RR3
seq_length=4
seq_position=2

<region>
end=43982
hivel=25
key=G#5
lovel=0
sample=LoAgogo_group_P_RR3.opus
</region>

<region>
end=44434
hivel=127
key=G#5
lovel=104
sample=LoAgogo_group_FF_RR3.opus
</region>

<region>
end=43928
hivel=77
key=G#5
lovel=52
sample=LoAgogo_group_MF_RR3.opus
</region>

<region>
end=43498
hivel=51
key=G#5
lovel=26
sample=LoAgogo_group_MP_RR3.opus
</region>

<region>
end=44144
hivel=103
key=G#5
lovel=78
sample=LoAgogo_group_F_RR3.opus
</region>
</group>

<group>
group_label=LoAgogo_RR5
seq_length=4
seq_position=3

<region>
end=43584
hivel=25
key=G#5
lovel=0
sample=LoAgogo_group_P_RR5.opus
</region>

<region>
end=44273
hivel=77
key=G#5
lovel=52
sample=LoAgogo_group_MF_RR5.opus
</region>

<region>
end=43928
hivel=103
key=G#5
lovel=78
sample=LoAgogo_group_F_RR5.opus
</region>

<region>
end=43526
hivel=127
key=G#5
lovel=104
sample=LoAgogo_group_FF_RR5.opus
</region>

<region>
end=44316
hivel=51
key=G#5
lovel=26
sample=LoAgogo_group_MP_RR5.opus
</region>
</group>

<group>
group_label=LoAgogo_RR7
seq_length=4
seq_position=4

<region>
end=44660
hivel=77
key=G#5
lovel=52
sample=LoAgogo_group_MF_RR7.opus
</region>

<region>
end=44262
hivel=127
key=G#5
lovel=104
offset=52
sample=LoAgogo_group_FF_RR7.opus
</region>

<region>
end=44211
hivel=51
key=G#5
lovel=26
sample=LoAgogo_group_MP_RR7.opus
</region>

<region>
end=43498
hivel=25
key=G#5
lovel=0
sample=LoAgogo_group_P_RR7.opus
</region>

<region>
end=44790
hivel=103
key=G#5
lovel=78
sample=LoAgogo_group_F_RR7.opus
</region>
</group>

<group>
group_label=LoJamBlock_RR1
seq_length=4
seq_position=1

<region>
end=22050
hivel=77
key=F6
lovel=52
offset=37
sample=LowJamBlock_Group_MF_RR1.opus
</region>

<region>
end=22395
hivel=51
key=F6
lovel=26
sample=LowJamBlock_Group_MP_RR1.opus
</region>

<region>
end=22050
hivel=25
key=F6
lovel=0
offset=413
sample=LowJamBlock_Group_P_RR1.opus
</region>

<region>
end=22740
hivel=103
key=F6
lovel=78
offset=218
sample=LowJamBlock_Group_F_RR1.opus
</region>

<region>
end=22050
hivel=127
key=F6
lovel=104
sample=LowJamBlock_Group_FF_RR1.opus
</region>
</group>

<group>
group_label=LoJamBlock_RR3
seq_length=4
seq_position=2

<region>
end=22740
hivel=127
key=F6
lovel=104
offset=42
sample=LowJamBlock_Group_FF_RR3.opus
</region>

<region>
end=22740
hivel=51
key=F6
lovel=26
offset=154
sample=LowJamBlock_Group_MP_RR3.opus
</region>

<region>
end=22234
hivel=77
key=F6
lovel=52
sample=LowJamBlock_Group_MF_RR3.opus
</region>

<region>
end=22740
hivel=25
key=F6
lovel=0
offset=57
sample=LowJamBlock_Group_P_RR3.opus
</region>

<region>
end=22912
hivel=103
key=F6
lovel=78
sample=LowJamBlock_Group_F_RR3.opus
</region>
</group>

<group>
group_label=LoJamBlock_RR5
seq_length=4
seq_position=3

<region>
end=22137
hivel=103
key=F6
lovel=78
offset=33
sample=LowJamBlock_Group_F_RR5.opus
</region>

<region>
end=22094
hivel=25
key=F6
lovel=0
sample=LowJamBlock_Group_P_RR5.opus
</region>

<region>
end=22740
hivel=127
key=F6
lovel=104
offset=11
sample=LowJamBlock_Group_FF_RR5.opus
</region>

<region>
end=22050
hivel=77
key=F6
lovel=52
offset=61
sample=LowJamBlock_Group_MF_RR5.opus
</region>

<region>
end=22740
hivel=51
key=F6
lovel=26
sample=LowJamBlock_Group_MP_RR5.opus
</region>
</group>

<group>
group_label=LoJamBlock_RR7
seq_length=4
seq_position=4

<region>
end=22740
hivel=127
key=F6
lovel=104
offset=296
sample=LowJamBlock_Group_FF_RR7.opus
</region>

<region>
end=22223
hivel=51
key=F6
lovel=26
sample=LowJamBlock_Group_MP_RR7.opus
</region>

<region>
end=22998
hivel=77
key=F6
lovel=52
sample=LowJamBlock_Group_MF_RR7.opus
</region>

<region>
end=22395
hivel=25
key=F6
lovel=0
sample=LowJamBlock_Group_P_RR7.opus
</region>

<region>
end=22826
hivel=103
key=F6
lovel=78
sample=LowJamBlock_Group_F_RR7.opus
</region>
</group>

<group>
group_label=RibbonCrasher_RR1
seq_length=4
seq_position=1

<region>
end=29168
hivel=25
key=B3
lovel=0
offset=348
sample=RibbonCrasher_group_P_RR1.opus
</region>

<region>
end=29172
hivel=51
key=B3
lovel=26
sample=RibbonCrasher_group_MP_RR1.opus
</region>

<region>
end=29630
hivel=103
key=B3
lovel=78
sample=RibbonCrasher_group_F_RR1.opus
</region>

<region>
end=29975
hivel=127
key=B3
lovel=104
offset=240
sample=RibbonCrasher_group_FF_RR1.opus
</region>

<region>
end=29975
hivel=77
key=B3
lovel=52
offset=335
sample=RibbonCrasher_group_MF_RR1.opus
</region>
</group>

<group>
group_label=RibbonCrasher_RR3
seq_length=4
seq_position=2

<region>
end=29630
hivel=127
key=B3
lovel=104
offset=235
sample=RibbonCrasher_group_FF_RR3.opus
</region>

<region>
end=29019
hivel=77
key=B3
lovel=52
offset=60
sample=RibbonCrasher_group_MF_RR3.opus
</region>

<region>
end=29802
hivel=51
key=B3
lovel=26
sample=RibbonCrasher_group_MP_RR3.opus
</region>

<region>
end=29113
hivel=25
key=B3
lovel=0
offset=55
sample=RibbonCrasher_group_P_RR3.opus
</region>

<region>
end=29286
hivel=103
key=B3
lovel=78
offset=53
sample=RibbonCrasher_group_F_RR3.opus
</region>
</group>

<group>
group_label=RibbonCrasher_RR5
seq_length=4
seq_position=3

<region>
end=29025
hivel=25
key=B3
lovel=0
offset=93
sample=RibbonCrasher_group_P_RR5.opus
</region>

<region>
end=29113
hivel=103
key=B3
lovel=78
offset=114
sample=RibbonCrasher_group_F_RR5.opus
</region>

<region>
end=28941
hivel=77
key=B3
lovel=52
offset=141
sample=RibbonCrasher_group_MF_RR5.opus
</region>

<region>
end=29113
hivel=51
key=B3
lovel=26
sample=RibbonCrasher_group_MP_RR5.opus
</region>

<region>
end=28941
hivel=127
key=B3
lovel=104
offset=592
sample=RibbonCrasher_group_FF_RR5.opus
</region>
</group>

<group>
group_label=RibbonCrasher_RR7
seq_length=4
seq_position=4

<region>
end=29286
hivel=25
key=B3
lovel=0
sample=RibbonCrasher_group_P_RR7.opus
</region>

<region>
end=29630
hivel=103
key=B3
lovel=78
offset=582
sample=RibbonCrasher_group_F_RR7.opus
</region>

<region>
end=29759
hivel=127
key=B3
lovel=104
offset=52
sample=RibbonCrasher_group_FF_RR7.opus
</region>

<region>
end=29376
hivel=77
key=B3
lovel=52
offset=354
sample=RibbonCrasher_group_MF_RR7.opus
</region>

<region>
end=29544
hivel=51
key=B3
lovel=26
sample=RibbonCrasher_group_MP_RR7.opus
</region>
</group>

<group>
group_label=Ride_RR1
seq_length=2
seq_position=1

<region>
end=494361
hivel=77
key=D#4
lovel=52
offset=121
sample=CymbalRide_MF_RR_1.opus
</region>

<region>
end=345744
hivel=51
key=D#4
lovel=26
offset=1364
sample=CymbalRide_MP_RR_1.opus
</region>

<region>
end=451584
hivel=25
key=D#4
lovel=0
sample=CymbalRide_P_RR_1.opus
</region>

<region>
end=443867
hivel=103
key=D#4
lovel=78
sample=CymbalRide_F_RR_1.opus
</region>

<region>
end=603288
hivel=127
key=D#4
lovel=104
offset=523
sample=CymbalRide_FF_RR_1.opus
</region>
</group>

<group>
group_label=Ride_RR2
seq_length=2
seq_position=2

<region>
end=486864
hivel=103
key=D#4
lovel=78
sample=CymbalRide_F_RR_2.opus
</region>

<region>
end=578592
hivel=127
key=D#4
lovel=104
offset=365
sample=CymbalRide_FF_RR_2.opus
</region>

<region>
end=466909
hivel=77
key=D#4
lovel=52
sample=CymbalRide_MF_RR_2.opus
</region>

<region>
end=388080
hivel=25
key=D#4
lovel=0
offset=564
sample=CymbalRide_P_RR_2.opus
</region>

<region>
end=345744
hivel=51
key=D#4
lovel=26
offset=2665
sample=CymbalRide_MP_RR_2.opus
</region>
</group>

<group>
group_label=CymBell_RR1
seq_length=2
seq_position=1

<region>
end=571922
hivel=51
key=F4
lovel=26
offset=589
sample=Cymbal RideBell group_MP_RR_1.opus
</region>

<region>
end=558600
hivel=77
key=F4
lovel=52
sample=Cymbal RideBell group_MF_RR_1.opus
</region>

<region>
end=306833
hivel=25
key=F4
lovel=0
sample=Cymbal RideBell group_P_RR_1.opus
</region>

<region>
end=604768
hivel=127
key=F4
lovel=78
offset=2
sample=Cymbal RideBell group_F_RR_1.opus
</region>
</group>

<group>
group_label=CymBell_RR2
seq_length=2
seq_position=2

<region>
end=608902
hivel=127
key=F4
lovel=78
sample=Cymbal RideBell group_F_RR_2.opus
</region>

<region>
end=373013
hivel=25
key=F4
lovel=0
offset=497
sample=Cymbal RideBell group_P_RR_2.opus
</region>

<region>
end=523688
hivel=51
key=F4
lovel=26
offset=3351
sample=Cymbal RideBell group_MP_RR_2.opus
</region>

<region>
end=558600
hivel=77
key=F4
lovel=52
offset=583
sample=Cymbal RideBell group_MF_RR_2.opus
</region>
</group>

<group>
group_label=StickClicks_RR1
seq_length=8
seq_position=1

<region>
end=22395
hivel=127
key=E1
lovel=104
sample=Stick clicks group_FF_RR_1.opus
</region>

<region>
end=22050
hivel=103
key=E1
lovel=78
sample=Stick clicks group_F_RR_1.opus
</region>

<region>
end=22740
hivel=51
key=E1
lovel=26
offset=383
sample=Stick clicks group_MP_RR_1.opus
</region>

<region>
end=22740
hivel=25
key=E1
lovel=0
offset=91
sample=Stick clicks group_P_RR_1.opus
</region>

<region>
end=22050
hivel=77
key=E1
lovel=52
offset=245
sample=Stick clicks group_MF_RR_1.opus
</region>
</group>

<group>
group_label=StickClicks_RR2
seq_length=8
seq_position=2

<region>
end=22050
hivel=127
key=E1
lovel=104
sample=Stick clicks group_FF_RR_2.opus
</region>

<region>
end=22912
hivel=51
key=E1
lovel=26
sample=Stick clicks group_MP_RR_2.opus
</region>

<region>
end=21706
hivel=103
key=E1
lovel=78
offset=76
sample=Stick clicks group_F_RR_2.opus
</region>

<region>
end=22740
hivel=77
key=E1
lovel=52
offset=202
sample=Stick clicks group_MF_RR_2.opus
</region>

<region>
end=23256
hivel=25
key=E1
lovel=0
offset=46
sample=Stick clicks group_P_RR_2.opus
</region>
</group>

<group>
group_label=StickClicks_RR3
seq_length=8
seq_position=3

<region>
end=22503
hivel=25
key=E1
lovel=0
sample=Stick clicks group_P_RR_3.opus
</region>

<region>
end=21706
hivel=103
key=E1
lovel=78
sample=Stick clicks group_F_RR_3.opus
</region>

<region>
end=22740
hivel=77
key=E1
lovel=52
offset=603
sample=Stick clicks group_MF_RR_3.opus
</region>

<region>
end=22050
hivel=127
key=E1
lovel=104
sample=Stick clicks group_FF_RR_3.opus
</region>

<region>
end=22567
hivel=51
key=E1
lovel=26
sample=Stick clicks group_MP_RR_3.opus
</region>
</group>

<group>
group_label=StickClicks_RR4
seq_length=8
seq_position=4

<region>
end=22050
hivel=77
key=E1
lovel=52
sample=Stick clicks group_MF_RR_4.opus
</region>

<region>
end=22481
hivel=51
key=E1
lovel=26
offset=27
sample=Stick clicks group_MP_RR_4.opus
</region>

<region>
end=22740
hivel=127
key=E1
lovel=104
offset=29
sample=Stick clicks group_FF_RR_4.opus
</region>

<region>
end=23084
hivel=25
key=E1
lovel=0
offset=106
sample=Stick clicks group_P_RR_4.opus
</region>

<region>
end=22740
hivel=103
key=E1
lovel=78
sample=Stick clicks group_F_RR_4.opus
</region>
</group>

<group>
group_label=StickClicks_RR5
seq_length=8
seq_position=5

<region>
end=22395
hivel=127
key=E1
lovel=104
offset=136
sample=Stick clicks group_FF_RR_5.opus
</region>

<region>
end=22223
hivel=25
key=E1
lovel=0
sample=Stick clicks group_P_RR_5.opus
</region>

<region>
end=22740
hivel=103
key=E1
lovel=78
sample=Stick clicks group_F_RR_5.opus
</region>

<region>
end=22050
hivel=77
key=E1
lovel=52
offset=172
sample=Stick clicks group_MF_RR_5.opus
</region>

<region>
end=22395
hivel=51
key=E1
lovel=26
offset=188
sample=Stick clicks group_MP_RR_5.opus
</region>
</group>

<group>
group_label=StickClicks_RR6
seq_length=8
seq_position=6

<region>
end=22050
hivel=77
key=E1
lovel=52
sample=Stick clicks group_MF_RR_6.opus
</region>

<region>
end=22223
hivel=103
key=E1
lovel=78
sample=Stick clicks group_F_RR_6.opus
</region>

<region>
end=22050
hivel=127
key=E1
lovel=104
sample=Stick clicks group_FF_RR_6.opus
</region>

<region>
end=22050
hivel=51
key=E1
lovel=26
sample=Stick clicks group_MP_RR_6.opus
</region>

<region>
end=23429
hivel=25
key=E1
lovel=0
offset=1100
sample=Stick clicks group_P_RR_6.opus
</region>
</group>

<group>
group_label=StickClicks_RR7
seq_length=8
seq_position=7

<region>
end=23429
hivel=25
key=E1
lovel=0
offset=343
sample=Stick clicks group_P_RR_7.opus
</region>

<region>
end=22740
hivel=127
key=E1
lovel=104
sample=Stick clicks group_FF_RR_7.opus
</region>

<region>
end=22740
hivel=77
key=E1
lovel=52
offset=193
sample=Stick clicks group_MF_RR_7.opus
</region>

<region>
end=22567
hivel=103
key=E1
lovel=78
offset=20
sample=Stick clicks group_F_RR_7.opus
</region>

<region>
end=22395
hivel=51
key=E1
lovel=26
sample=Stick clicks group_MP_RR_7.opus
</region>
</group>

<group>
group_label=StickClicks_RR8
seq_length=8
seq_position=8

<region>
end=23429
hivel=25
key=E1
lovel=0
offset=106
sample=Stick clicks group_P_RR_8.opus
</region>

<region>
end=22481
hivel=127
key=E1
lovel=104
sample=Stick clicks group_FF_RR_8.opus
</region>

<region>
end=22567
hivel=77
key=E1
lovel=52
sample=Stick clicks group_MF_RR_8.opus
</region>

<region>
end=22050
hivel=51
key=E1
lovel=26
sample=Stick clicks group_MP_RR_8.opus
</region>

<region>
end=22740
hivel=103
key=E1
lovel=78
offset=52
sample=Stick clicks group_F_RR_8.opus
</region>
</group>

<group>
group_label=SticksIn_RR1
seq_length=9
seq_position=1

<region>
end=44647
hivel=127
key=C1
lovel=0
offset=156
sample=SticksIn-Group_RR1.opus
</region>
</group>

<group>
group_label=SticksIn_RR2
seq_length=9
seq_position=2

<region>
end=28486
hivel=127
key=C1
lovel=0
sample=SticksIn-Group_RR2.opus
</region>
</group>

<group>
group_label=SticksIn_RR3
seq_length=9
seq_position=3

<region>
end=30832
hivel=127
key=C1
lovel=0
offset=187
sample=SticksIn-Group_RR3.opus
</region>
</group>

<group>
group_label=SticksIn_RR4
seq_length=9
seq_position=4

<region>
end=36613
hivel=127
key=C1
lovel=0
sample=SticksIn-Group_RR4.opus
</region>
</group>

<group>
group_label=SticksIn_RR5
seq_length=9
seq_position=5

<region>
end=35524
hivel=127
key=C1
lovel=0
sample=SticksIn-Group_RR5.opus
</region>
</group>

<group>
group_label=SticksIn_RR6
seq_length=9
seq_position=6

<region>
end=32173
hivel=127
key=C1
lovel=0
offset=153
sample=SticksIn-Group_RR6.opus
</region>
</group>

<group>
group_label=SticksIn_RR7
seq_length=9
seq_position=7

<region>
end=35891
hivel=127
key=C1
lovel=0
sample=SticksIn-Group_RR7.opus
</region>
</group>

<group>
group_label=SticksIn_RR8
seq_length=9
seq_position=8

<region>
end=38205
hivel=127
key=C1
lovel=0
offset=551
sample=SticksIn-Group_RR8.opus
</region>
</group>

<group>
group_label=SticksIn_RR9
seq_length=9
seq_position=9

<region>
end=39967
hivel=127
key=C1
lovel=0
offset=31
sample=SticksIn-Group_RR9.opus
</region>
</group>